<mxfile host="app.diagrams.net" modified="2022-12-07T05:33:15.731Z" agent="5.0 (Windows NT 10.0; Win64; x64) AppleWebKit/537.36 (KHTML, like Gecko) Chrome/108.0.0.0 Safari/537.36" etag="X-Cq9WXMCs9hgZZdcX1-" version="20.6.0" type="github">
  <diagram id="6zsOtWT_X8GrvzXxwxW-" name="PÃ¡gina-1">
    <mxGraphModel dx="1477" dy="401" grid="1" gridSize="10" guides="1" tooltips="1" connect="1" arrows="1" fold="1" page="1" pageScale="1" pageWidth="827" pageHeight="1169" math="0" shadow="0">
      <root>
        <mxCell id="0" />
        <mxCell id="1" parent="0" />
        <mxCell id="gMNYxjjWENhNmv2LR7Qf-5" value="sucursales" style="rounded=0;whiteSpace=wrap;html=1;" parent="1" vertex="1">
          <mxGeometry x="120" y="120" width="120" height="40" as="geometry" />
        </mxCell>
        <mxCell id="gMNYxjjWENhNmv2LR7Qf-6" value="" style="ellipse;whiteSpace=wrap;html=1;aspect=fixed;fillColor=#000000;strokeColor=#001DBC;fontColor=#ffffff;" parent="1" vertex="1">
          <mxGeometry x="40" y="50" width="20" height="20" as="geometry" />
        </mxCell>
        <mxCell id="gMNYxjjWENhNmv2LR7Qf-7" value="" style="ellipse;whiteSpace=wrap;html=1;aspect=fixed;" parent="1" vertex="1">
          <mxGeometry x="40" y="130" width="20" height="20" as="geometry" />
        </mxCell>
        <mxCell id="gMNYxjjWENhNmv2LR7Qf-8" value="" style="ellipse;whiteSpace=wrap;html=1;aspect=fixed;" parent="1" vertex="1">
          <mxGeometry x="40" y="210" width="20" height="20" as="geometry" />
        </mxCell>
        <mxCell id="gMNYxjjWENhNmv2LR7Qf-9" value="" style="endArrow=none;html=1;rounded=0;exitX=1;exitY=0.5;exitDx=0;exitDy=0;entryX=0.25;entryY=0;entryDx=0;entryDy=0;" parent="1" source="gMNYxjjWENhNmv2LR7Qf-6" target="gMNYxjjWENhNmv2LR7Qf-5" edge="1">
          <mxGeometry width="50" height="50" relative="1" as="geometry">
            <mxPoint x="390" y="230" as="sourcePoint" />
            <mxPoint x="440" y="180" as="targetPoint" />
          </mxGeometry>
        </mxCell>
        <mxCell id="gMNYxjjWENhNmv2LR7Qf-10" value="" style="endArrow=none;html=1;rounded=0;exitX=1;exitY=0.5;exitDx=0;exitDy=0;entryX=0;entryY=0.5;entryDx=0;entryDy=0;" parent="1" source="gMNYxjjWENhNmv2LR7Qf-7" target="gMNYxjjWENhNmv2LR7Qf-5" edge="1">
          <mxGeometry width="50" height="50" relative="1" as="geometry">
            <mxPoint x="390" y="230" as="sourcePoint" />
            <mxPoint x="440" y="180" as="targetPoint" />
          </mxGeometry>
        </mxCell>
        <mxCell id="gMNYxjjWENhNmv2LR7Qf-11" value="" style="endArrow=none;html=1;rounded=0;exitX=1;exitY=0.5;exitDx=0;exitDy=0;entryX=0.25;entryY=1;entryDx=0;entryDy=0;" parent="1" source="gMNYxjjWENhNmv2LR7Qf-8" target="gMNYxjjWENhNmv2LR7Qf-5" edge="1">
          <mxGeometry width="50" height="50" relative="1" as="geometry">
            <mxPoint x="390" y="230" as="sourcePoint" />
            <mxPoint x="440" y="180" as="targetPoint" />
          </mxGeometry>
        </mxCell>
        <mxCell id="gMNYxjjWENhNmv2LR7Qf-12" value="codigo_sucursal" style="text;html=1;strokeColor=none;fillColor=none;align=center;verticalAlign=middle;whiteSpace=wrap;rounded=0;" parent="1" vertex="1">
          <mxGeometry x="-50" y="45" width="60" height="30" as="geometry" />
        </mxCell>
        <mxCell id="gMNYxjjWENhNmv2LR7Qf-13" value="direccion_sucursal" style="text;html=1;strokeColor=none;fillColor=none;align=center;verticalAlign=middle;whiteSpace=wrap;rounded=0;" parent="1" vertex="1">
          <mxGeometry x="-60" y="125" width="60" height="30" as="geometry" />
        </mxCell>
        <mxCell id="gMNYxjjWENhNmv2LR7Qf-14" value="telefono_sucursal" style="text;html=1;strokeColor=none;fillColor=none;align=center;verticalAlign=middle;whiteSpace=wrap;rounded=0;" parent="1" vertex="1">
          <mxGeometry x="-50" y="205" width="60" height="30" as="geometry" />
        </mxCell>
        <mxCell id="aKfMm3EBDrIE1fahZyFZ-1" value="empleados" style="rounded=0;whiteSpace=wrap;html=1;" parent="1" vertex="1">
          <mxGeometry x="520" y="120" width="120" height="40" as="geometry" />
        </mxCell>
        <mxCell id="aKfMm3EBDrIE1fahZyFZ-6" value="" style="ellipse;whiteSpace=wrap;html=1;aspect=fixed;fillColor=#000000;" parent="1" vertex="1">
          <mxGeometry x="680" y="40" width="20" height="20" as="geometry" />
        </mxCell>
        <mxCell id="aKfMm3EBDrIE1fahZyFZ-7" value="" style="ellipse;whiteSpace=wrap;html=1;aspect=fixed;" parent="1" vertex="1">
          <mxGeometry x="680" y="100" width="20" height="20" as="geometry" />
        </mxCell>
        <mxCell id="aKfMm3EBDrIE1fahZyFZ-15" style="edgeStyle=orthogonalEdgeStyle;rounded=0;orthogonalLoop=1;jettySize=auto;html=1;exitX=1;exitY=0.5;exitDx=0;exitDy=0;" parent="1" source="aKfMm3EBDrIE1fahZyFZ-8" edge="1">
          <mxGeometry relative="1" as="geometry">
            <mxPoint x="690" y="180" as="targetPoint" />
          </mxGeometry>
        </mxCell>
        <mxCell id="aKfMm3EBDrIE1fahZyFZ-8" value="" style="ellipse;whiteSpace=wrap;html=1;aspect=fixed;" parent="1" vertex="1">
          <mxGeometry x="680" y="160" width="20" height="20" as="geometry" />
        </mxCell>
        <mxCell id="aKfMm3EBDrIE1fahZyFZ-9" value="" style="ellipse;whiteSpace=wrap;html=1;aspect=fixed;" parent="1" vertex="1">
          <mxGeometry x="680" y="220" width="20" height="20" as="geometry" />
        </mxCell>
        <mxCell id="aKfMm3EBDrIE1fahZyFZ-10" value="" style="endArrow=none;html=1;rounded=0;entryX=0.75;entryY=0;entryDx=0;entryDy=0;exitX=0;exitY=0.5;exitDx=0;exitDy=0;" parent="1" source="aKfMm3EBDrIE1fahZyFZ-6" target="aKfMm3EBDrIE1fahZyFZ-1" edge="1">
          <mxGeometry width="50" height="50" relative="1" as="geometry">
            <mxPoint x="410" y="260" as="sourcePoint" />
            <mxPoint x="460" y="210" as="targetPoint" />
          </mxGeometry>
        </mxCell>
        <mxCell id="aKfMm3EBDrIE1fahZyFZ-11" value="" style="endArrow=none;html=1;rounded=0;entryX=0;entryY=0.5;entryDx=0;entryDy=0;exitX=1;exitY=0.25;exitDx=0;exitDy=0;" parent="1" source="aKfMm3EBDrIE1fahZyFZ-1" target="aKfMm3EBDrIE1fahZyFZ-7" edge="1">
          <mxGeometry width="50" height="50" relative="1" as="geometry">
            <mxPoint x="410" y="260" as="sourcePoint" />
            <mxPoint x="460" y="210" as="targetPoint" />
          </mxGeometry>
        </mxCell>
        <mxCell id="aKfMm3EBDrIE1fahZyFZ-12" value="" style="endArrow=none;html=1;rounded=0;entryX=0;entryY=0.5;entryDx=0;entryDy=0;exitX=1;exitY=0.75;exitDx=0;exitDy=0;" parent="1" source="aKfMm3EBDrIE1fahZyFZ-1" target="aKfMm3EBDrIE1fahZyFZ-8" edge="1">
          <mxGeometry width="50" height="50" relative="1" as="geometry">
            <mxPoint x="410" y="260" as="sourcePoint" />
            <mxPoint x="460" y="210" as="targetPoint" />
          </mxGeometry>
        </mxCell>
        <mxCell id="aKfMm3EBDrIE1fahZyFZ-13" value="" style="endArrow=none;html=1;rounded=0;entryX=0;entryY=0.5;entryDx=0;entryDy=0;exitX=0.75;exitY=1;exitDx=0;exitDy=0;" parent="1" source="aKfMm3EBDrIE1fahZyFZ-1" target="aKfMm3EBDrIE1fahZyFZ-9" edge="1">
          <mxGeometry width="50" height="50" relative="1" as="geometry">
            <mxPoint x="410" y="260" as="sourcePoint" />
            <mxPoint x="460" y="210" as="targetPoint" />
          </mxGeometry>
        </mxCell>
        <mxCell id="aKfMm3EBDrIE1fahZyFZ-20" value="nif_empleado" style="text;html=1;strokeColor=none;fillColor=none;align=center;verticalAlign=middle;whiteSpace=wrap;rounded=0;" parent="1" vertex="1">
          <mxGeometry x="737" y="37.5" width="30" height="25" as="geometry" />
        </mxCell>
        <mxCell id="aKfMm3EBDrIE1fahZyFZ-21" value="nombre_empleado" style="text;html=1;strokeColor=none;fillColor=none;align=center;verticalAlign=middle;whiteSpace=wrap;rounded=0;" parent="1" vertex="1">
          <mxGeometry x="730" y="95" width="60" height="30" as="geometry" />
        </mxCell>
        <mxCell id="aKfMm3EBDrIE1fahZyFZ-22" value="apellidos_empleado" style="text;html=1;strokeColor=none;fillColor=none;align=center;verticalAlign=middle;whiteSpace=wrap;rounded=0;" parent="1" vertex="1">
          <mxGeometry x="730" y="155" width="60" height="30" as="geometry" />
        </mxCell>
        <mxCell id="aKfMm3EBDrIE1fahZyFZ-23" value="telefono_empleado" style="text;html=1;strokeColor=none;fillColor=none;align=center;verticalAlign=middle;whiteSpace=wrap;rounded=0;" parent="1" vertex="1">
          <mxGeometry x="730" y="215" width="60" height="30" as="geometry" />
        </mxCell>
        <mxCell id="aKfMm3EBDrIE1fahZyFZ-24" value="trabaja" style="rhombus;whiteSpace=wrap;html=1;" parent="1" vertex="1">
          <mxGeometry x="340" y="100" width="80" height="80" as="geometry" />
        </mxCell>
        <mxCell id="aKfMm3EBDrIE1fahZyFZ-25" value="" style="endArrow=none;html=1;rounded=0;entryX=0;entryY=0.5;entryDx=0;entryDy=0;exitX=1;exitY=0.5;exitDx=0;exitDy=0;" parent="1" source="aKfMm3EBDrIE1fahZyFZ-24" target="aKfMm3EBDrIE1fahZyFZ-1" edge="1">
          <mxGeometry width="50" height="50" relative="1" as="geometry">
            <mxPoint x="410" y="260" as="sourcePoint" />
            <mxPoint x="460" y="210" as="targetPoint" />
          </mxGeometry>
        </mxCell>
        <mxCell id="aKfMm3EBDrIE1fahZyFZ-26" value="" style="endArrow=none;html=1;rounded=0;exitX=1;exitY=0.5;exitDx=0;exitDy=0;" parent="1" source="gMNYxjjWENhNmv2LR7Qf-5" target="aKfMm3EBDrIE1fahZyFZ-24" edge="1">
          <mxGeometry width="50" height="50" relative="1" as="geometry">
            <mxPoint x="410" y="260" as="sourcePoint" />
            <mxPoint x="460" y="210" as="targetPoint" />
          </mxGeometry>
        </mxCell>
        <mxCell id="aKfMm3EBDrIE1fahZyFZ-27" value="1" style="text;html=1;strokeColor=none;fillColor=none;align=center;verticalAlign=middle;whiteSpace=wrap;rounded=0;" parent="1" vertex="1">
          <mxGeometry x="250" y="110" width="60" height="30" as="geometry" />
        </mxCell>
        <mxCell id="aKfMm3EBDrIE1fahZyFZ-28" value="N" style="text;html=1;strokeColor=none;fillColor=none;align=center;verticalAlign=middle;whiteSpace=wrap;rounded=0;" parent="1" vertex="1">
          <mxGeometry x="450" y="110" width="60" height="30" as="geometry" />
        </mxCell>
        <mxCell id="aKfMm3EBDrIE1fahZyFZ-29" value="1" style="text;html=1;strokeColor=none;fillColor=none;align=center;verticalAlign=middle;whiteSpace=wrap;rounded=0;" parent="1" vertex="1">
          <mxGeometry x="450" y="140" width="60" height="30" as="geometry" />
        </mxCell>
        <mxCell id="aKfMm3EBDrIE1fahZyFZ-30" value="1" style="text;html=1;strokeColor=none;fillColor=none;align=center;verticalAlign=middle;whiteSpace=wrap;rounded=0;" parent="1" vertex="1">
          <mxGeometry x="250" y="140" width="60" height="30" as="geometry" />
        </mxCell>
        <mxCell id="aKfMm3EBDrIE1fahZyFZ-31" value="1:N" style="text;html=1;strokeColor=none;fillColor=none;align=center;verticalAlign=middle;whiteSpace=wrap;rounded=0;" parent="1" vertex="1">
          <mxGeometry x="350" y="70" width="60" height="30" as="geometry" />
        </mxCell>
        <mxCell id="aKfMm3EBDrIE1fahZyFZ-32" value="publica" style="rhombus;whiteSpace=wrap;html=1;" parent="1" vertex="1">
          <mxGeometry x="140" y="280" width="80" height="80" as="geometry" />
        </mxCell>
        <mxCell id="aKfMm3EBDrIE1fahZyFZ-33" value="" style="endArrow=none;html=1;rounded=0;entryX=0.5;entryY=1;entryDx=0;entryDy=0;" parent="1" source="aKfMm3EBDrIE1fahZyFZ-32" target="gMNYxjjWENhNmv2LR7Qf-5" edge="1">
          <mxGeometry width="50" height="50" relative="1" as="geometry">
            <mxPoint x="250" y="360" as="sourcePoint" />
            <mxPoint x="300" y="310" as="targetPoint" />
          </mxGeometry>
        </mxCell>
        <mxCell id="aKfMm3EBDrIE1fahZyFZ-34" value="revistas" style="rounded=0;whiteSpace=wrap;html=1;" parent="1" vertex="1">
          <mxGeometry x="120" y="480" width="120" height="40" as="geometry" />
        </mxCell>
        <mxCell id="aKfMm3EBDrIE1fahZyFZ-35" value="" style="endArrow=none;html=1;rounded=0;entryX=0.5;entryY=1;entryDx=0;entryDy=0;exitX=0.5;exitY=0;exitDx=0;exitDy=0;" parent="1" source="aKfMm3EBDrIE1fahZyFZ-34" target="aKfMm3EBDrIE1fahZyFZ-32" edge="1">
          <mxGeometry width="50" height="50" relative="1" as="geometry">
            <mxPoint x="250" y="360" as="sourcePoint" />
            <mxPoint x="300" y="310" as="targetPoint" />
          </mxGeometry>
        </mxCell>
        <mxCell id="aKfMm3EBDrIE1fahZyFZ-36" value="" style="shape=or;whiteSpace=wrap;html=1;fillColor=#000000;" parent="1" vertex="1">
          <mxGeometry x="580" y="240" width="10" height="20" as="geometry" />
        </mxCell>
        <mxCell id="aKfMm3EBDrIE1fahZyFZ-37" value="" style="shape=or;whiteSpace=wrap;html=1;rotation=-180;" parent="1" vertex="1">
          <mxGeometry x="570" y="240" width="10" height="20" as="geometry" />
        </mxCell>
        <mxCell id="aKfMm3EBDrIE1fahZyFZ-39" value="codigo_sucursal1" style="text;html=1;strokeColor=none;fillColor=none;align=center;verticalAlign=middle;whiteSpace=wrap;rounded=0;" parent="1" vertex="1">
          <mxGeometry x="550" y="260" width="60" height="30" as="geometry" />
        </mxCell>
        <mxCell id="aKfMm3EBDrIE1fahZyFZ-40" value="" style="ellipse;whiteSpace=wrap;html=1;aspect=fixed;fillColor=#000000;" parent="1" vertex="1">
          <mxGeometry x="40" y="400" width="20" height="20" as="geometry" />
        </mxCell>
        <mxCell id="aKfMm3EBDrIE1fahZyFZ-41" value="" style="ellipse;whiteSpace=wrap;html=1;aspect=fixed;" parent="1" vertex="1">
          <mxGeometry x="40" y="460" width="20" height="20" as="geometry" />
        </mxCell>
        <mxCell id="aKfMm3EBDrIE1fahZyFZ-42" value="" style="ellipse;whiteSpace=wrap;html=1;aspect=fixed;" parent="1" vertex="1">
          <mxGeometry x="40" y="520" width="20" height="20" as="geometry" />
        </mxCell>
        <mxCell id="aKfMm3EBDrIE1fahZyFZ-43" value="" style="ellipse;whiteSpace=wrap;html=1;aspect=fixed;" parent="1" vertex="1">
          <mxGeometry x="40" y="580" width="20" height="20" as="geometry" />
        </mxCell>
        <mxCell id="aKfMm3EBDrIE1fahZyFZ-44" value="numreg_revista" style="text;html=1;strokeColor=none;fillColor=none;align=center;verticalAlign=middle;whiteSpace=wrap;rounded=0;" parent="1" vertex="1">
          <mxGeometry x="-50" y="395" width="60" height="30" as="geometry" />
        </mxCell>
        <mxCell id="aKfMm3EBDrIE1fahZyFZ-45" value="titulo_revista" style="text;html=1;strokeColor=none;fillColor=none;align=center;verticalAlign=middle;whiteSpace=wrap;rounded=0;" parent="1" vertex="1">
          <mxGeometry x="-40" y="455" width="60" height="30" as="geometry" />
        </mxCell>
        <mxCell id="aKfMm3EBDrIE1fahZyFZ-49" value="per_revista" style="text;html=1;strokeColor=none;fillColor=none;align=center;verticalAlign=middle;whiteSpace=wrap;rounded=0;" parent="1" vertex="1">
          <mxGeometry x="-40" y="515" width="60" height="30" as="geometry" />
        </mxCell>
        <mxCell id="aKfMm3EBDrIE1fahZyFZ-50" value="tipo_revista" style="text;html=1;strokeColor=none;fillColor=none;align=center;verticalAlign=middle;whiteSpace=wrap;rounded=0;" parent="1" vertex="1">
          <mxGeometry x="-40" y="575" width="60" height="30" as="geometry" />
        </mxCell>
        <mxCell id="aKfMm3EBDrIE1fahZyFZ-51" value="" style="endArrow=none;html=1;rounded=0;exitX=1;exitY=0.5;exitDx=0;exitDy=0;" parent="1" source="aKfMm3EBDrIE1fahZyFZ-40" edge="1">
          <mxGeometry width="50" height="50" relative="1" as="geometry">
            <mxPoint x="250" y="360" as="sourcePoint" />
            <mxPoint x="150" y="480" as="targetPoint" />
          </mxGeometry>
        </mxCell>
        <mxCell id="aKfMm3EBDrIE1fahZyFZ-52" value="" style="endArrow=none;html=1;rounded=0;exitX=1;exitY=0.5;exitDx=0;exitDy=0;entryX=0;entryY=0.25;entryDx=0;entryDy=0;" parent="1" source="aKfMm3EBDrIE1fahZyFZ-41" target="aKfMm3EBDrIE1fahZyFZ-34" edge="1">
          <mxGeometry width="50" height="50" relative="1" as="geometry">
            <mxPoint x="250" y="360" as="sourcePoint" />
            <mxPoint x="300" y="310" as="targetPoint" />
          </mxGeometry>
        </mxCell>
        <mxCell id="aKfMm3EBDrIE1fahZyFZ-53" value="" style="endArrow=none;html=1;rounded=0;exitX=1;exitY=0.5;exitDx=0;exitDy=0;entryX=0;entryY=0.75;entryDx=0;entryDy=0;" parent="1" source="aKfMm3EBDrIE1fahZyFZ-42" target="aKfMm3EBDrIE1fahZyFZ-34" edge="1">
          <mxGeometry width="50" height="50" relative="1" as="geometry">
            <mxPoint x="250" y="360" as="sourcePoint" />
            <mxPoint x="300" y="310" as="targetPoint" />
          </mxGeometry>
        </mxCell>
        <mxCell id="aKfMm3EBDrIE1fahZyFZ-54" value="" style="endArrow=none;html=1;rounded=0;exitX=1;exitY=0.5;exitDx=0;exitDy=0;entryX=0.25;entryY=1;entryDx=0;entryDy=0;" parent="1" source="aKfMm3EBDrIE1fahZyFZ-43" target="aKfMm3EBDrIE1fahZyFZ-34" edge="1">
          <mxGeometry width="50" height="50" relative="1" as="geometry">
            <mxPoint x="250" y="360" as="sourcePoint" />
            <mxPoint x="300" y="310" as="targetPoint" />
          </mxGeometry>
        </mxCell>
        <mxCell id="aKfMm3EBDrIE1fahZyFZ-55" value="1" style="text;html=1;align=center;verticalAlign=middle;resizable=0;points=[];autosize=1;strokeColor=none;fillColor=none;" parent="1" vertex="1">
          <mxGeometry x="190" y="215" width="30" height="30" as="geometry" />
        </mxCell>
        <mxCell id="aKfMm3EBDrIE1fahZyFZ-56" value="N" style="text;html=1;align=center;verticalAlign=middle;resizable=0;points=[];autosize=1;strokeColor=none;fillColor=none;" parent="1" vertex="1">
          <mxGeometry x="190" y="375" width="30" height="30" as="geometry" />
        </mxCell>
        <mxCell id="aKfMm3EBDrIE1fahZyFZ-57" value="1" style="text;html=1;align=center;verticalAlign=middle;resizable=0;points=[];autosize=1;strokeColor=none;fillColor=none;" parent="1" vertex="1">
          <mxGeometry x="140" y="375" width="30" height="30" as="geometry" />
        </mxCell>
        <mxCell id="aKfMm3EBDrIE1fahZyFZ-58" value="M" style="text;html=1;align=center;verticalAlign=middle;resizable=0;points=[];autosize=1;strokeColor=none;fillColor=none;" parent="1" vertex="1">
          <mxGeometry x="140" y="215" width="30" height="30" as="geometry" />
        </mxCell>
        <mxCell id="aKfMm3EBDrIE1fahZyFZ-59" value="N:M" style="text;html=1;align=center;verticalAlign=middle;resizable=0;points=[];autosize=1;strokeColor=none;fillColor=none;" parent="1" vertex="1">
          <mxGeometry x="80" y="305" width="50" height="30" as="geometry" />
        </mxCell>
        <mxCell id="aKfMm3EBDrIE1fahZyFZ-60" value="" style="shape=or;whiteSpace=wrap;html=1;fillColor=#000000;" parent="1" vertex="1">
          <mxGeometry x="295" y="280" width="10" height="20" as="geometry" />
        </mxCell>
        <mxCell id="aKfMm3EBDrIE1fahZyFZ-61" value="" style="shape=or;whiteSpace=wrap;html=1;rotation=-180;" parent="1" vertex="1">
          <mxGeometry x="285" y="280" width="10" height="20" as="geometry" />
        </mxCell>
        <mxCell id="aKfMm3EBDrIE1fahZyFZ-62" value="codigo_sucursal2" style="text;html=1;strokeColor=none;fillColor=none;align=center;verticalAlign=middle;whiteSpace=wrap;rounded=0;" parent="1" vertex="1">
          <mxGeometry x="330" y="275" width="60" height="30" as="geometry" />
        </mxCell>
        <mxCell id="2yVKXxKt472AUoF-M2C5-1" value="" style="endArrow=none;html=1;rounded=0;entryX=0.5;entryY=1;entryDx=0;entryDy=0;" edge="1" parent="1" target="aKfMm3EBDrIE1fahZyFZ-1">
          <mxGeometry width="50" height="50" relative="1" as="geometry">
            <mxPoint x="580" y="250" as="sourcePoint" />
            <mxPoint x="450" y="280" as="targetPoint" />
          </mxGeometry>
        </mxCell>
        <mxCell id="2yVKXxKt472AUoF-M2C5-3" value="" style="shape=or;whiteSpace=wrap;html=1;rotation=-180;" vertex="1" parent="1">
          <mxGeometry x="285" y="340" width="10" height="20" as="geometry" />
        </mxCell>
        <mxCell id="2yVKXxKt472AUoF-M2C5-4" value="" style="shape=or;whiteSpace=wrap;html=1;fillColor=#000000;" vertex="1" parent="1">
          <mxGeometry x="295" y="340" width="10" height="20" as="geometry" />
        </mxCell>
        <mxCell id="2yVKXxKt472AUoF-M2C5-5" value="numreg_revista1" style="text;html=1;strokeColor=none;fillColor=none;align=center;verticalAlign=middle;whiteSpace=wrap;rounded=0;" vertex="1" parent="1">
          <mxGeometry x="330" y="335" width="60" height="30" as="geometry" />
        </mxCell>
        <mxCell id="2yVKXxKt472AUoF-M2C5-6" value="" style="endArrow=none;html=1;rounded=0;entryX=1;entryY=0.5;entryDx=0;entryDy=0;entryPerimeter=0;exitX=1;exitY=0;exitDx=0;exitDy=0;" edge="1" parent="1" source="aKfMm3EBDrIE1fahZyFZ-32" target="aKfMm3EBDrIE1fahZyFZ-61">
          <mxGeometry width="50" height="50" relative="1" as="geometry">
            <mxPoint x="260" y="390" as="sourcePoint" />
            <mxPoint x="310" y="340" as="targetPoint" />
          </mxGeometry>
        </mxCell>
        <mxCell id="2yVKXxKt472AUoF-M2C5-7" value="" style="endArrow=none;html=1;rounded=0;exitX=1;exitY=1;exitDx=0;exitDy=0;entryX=1;entryY=0.5;entryDx=0;entryDy=0;entryPerimeter=0;" edge="1" parent="1" source="aKfMm3EBDrIE1fahZyFZ-32" target="2yVKXxKt472AUoF-M2C5-3">
          <mxGeometry width="50" height="50" relative="1" as="geometry">
            <mxPoint x="260" y="390" as="sourcePoint" />
            <mxPoint x="310" y="340" as="targetPoint" />
          </mxGeometry>
        </mxCell>
        <mxCell id="2yVKXxKt472AUoF-M2C5-8" value="periodista" style="rounded=0;whiteSpace=wrap;html=1;" vertex="1" parent="1">
          <mxGeometry x="560" y="480" width="120" height="40" as="geometry" />
        </mxCell>
        <mxCell id="2yVKXxKt472AUoF-M2C5-9" value="" style="ellipse;whiteSpace=wrap;html=1;aspect=fixed;fillColor=#000000;" vertex="1" parent="1">
          <mxGeometry x="720" y="400" width="20" height="20" as="geometry" />
        </mxCell>
        <mxCell id="2yVKXxKt472AUoF-M2C5-10" value="" style="ellipse;whiteSpace=wrap;html=1;aspect=fixed;" vertex="1" parent="1">
          <mxGeometry x="720" y="440" width="20" height="20" as="geometry" />
        </mxCell>
        <mxCell id="2yVKXxKt472AUoF-M2C5-12" value="" style="ellipse;whiteSpace=wrap;html=1;aspect=fixed;" vertex="1" parent="1">
          <mxGeometry x="720" y="490" width="20" height="20" as="geometry" />
        </mxCell>
        <mxCell id="2yVKXxKt472AUoF-M2C5-13" value="" style="ellipse;whiteSpace=wrap;html=1;aspect=fixed;" vertex="1" parent="1">
          <mxGeometry x="720" y="540" width="20" height="20" as="geometry" />
        </mxCell>
        <mxCell id="2yVKXxKt472AUoF-M2C5-14" value="" style="endArrow=none;html=1;rounded=0;exitX=0;exitY=0.5;exitDx=0;exitDy=0;" edge="1" parent="1" source="2yVKXxKt472AUoF-M2C5-9">
          <mxGeometry width="50" height="50" relative="1" as="geometry">
            <mxPoint x="450" y="625" as="sourcePoint" />
            <mxPoint x="650" y="480" as="targetPoint" />
          </mxGeometry>
        </mxCell>
        <mxCell id="2yVKXxKt472AUoF-M2C5-15" value="" style="endArrow=none;html=1;rounded=0;entryX=0;entryY=0.5;entryDx=0;entryDy=0;exitX=1;exitY=0.25;exitDx=0;exitDy=0;" edge="1" parent="1" source="2yVKXxKt472AUoF-M2C5-8" target="2yVKXxKt472AUoF-M2C5-10">
          <mxGeometry width="50" height="50" relative="1" as="geometry">
            <mxPoint x="450" y="625" as="sourcePoint" />
            <mxPoint x="500" y="575" as="targetPoint" />
          </mxGeometry>
        </mxCell>
        <mxCell id="2yVKXxKt472AUoF-M2C5-16" value="" style="endArrow=none;html=1;rounded=0;entryX=0;entryY=0.5;entryDx=0;entryDy=0;exitX=1;exitY=0.5;exitDx=0;exitDy=0;" edge="1" parent="1" source="2yVKXxKt472AUoF-M2C5-8" target="2yVKXxKt472AUoF-M2C5-12">
          <mxGeometry width="50" height="50" relative="1" as="geometry">
            <mxPoint x="450" y="625" as="sourcePoint" />
            <mxPoint x="500" y="575" as="targetPoint" />
          </mxGeometry>
        </mxCell>
        <mxCell id="2yVKXxKt472AUoF-M2C5-17" value="" style="endArrow=none;html=1;rounded=0;entryX=0;entryY=0.5;entryDx=0;entryDy=0;exitX=1;exitY=0.75;exitDx=0;exitDy=0;" edge="1" parent="1" source="2yVKXxKt472AUoF-M2C5-8" target="2yVKXxKt472AUoF-M2C5-13">
          <mxGeometry width="50" height="50" relative="1" as="geometry">
            <mxPoint x="450" y="625" as="sourcePoint" />
            <mxPoint x="500" y="575" as="targetPoint" />
          </mxGeometry>
        </mxCell>
        <mxCell id="2yVKXxKt472AUoF-M2C5-18" value="nif_periodista" style="text;html=1;strokeColor=none;fillColor=none;align=center;verticalAlign=middle;whiteSpace=wrap;rounded=0;" vertex="1" parent="1">
          <mxGeometry x="770" y="397.5" width="30" height="25" as="geometry" />
        </mxCell>
        <mxCell id="2yVKXxKt472AUoF-M2C5-19" value="nombre_periodista" style="text;html=1;strokeColor=none;fillColor=none;align=center;verticalAlign=middle;whiteSpace=wrap;rounded=0;" vertex="1" parent="1">
          <mxGeometry x="770" y="435" width="60" height="30" as="geometry" />
        </mxCell>
        <mxCell id="2yVKXxKt472AUoF-M2C5-20" value="apellidos_periodista" style="text;html=1;strokeColor=none;fillColor=none;align=center;verticalAlign=middle;whiteSpace=wrap;rounded=0;" vertex="1" parent="1">
          <mxGeometry x="775" y="485" width="60" height="30" as="geometry" />
        </mxCell>
        <mxCell id="2yVKXxKt472AUoF-M2C5-21" value="telefono_periodista" style="text;html=1;strokeColor=none;fillColor=none;align=center;verticalAlign=middle;whiteSpace=wrap;rounded=0;" vertex="1" parent="1">
          <mxGeometry x="775" y="535" width="60" height="30" as="geometry" />
        </mxCell>
        <mxCell id="2yVKXxKt472AUoF-M2C5-26" value="escribe" style="rhombus;whiteSpace=wrap;html=1;" vertex="1" parent="1">
          <mxGeometry x="360" y="460" width="80" height="80" as="geometry" />
        </mxCell>
        <mxCell id="2yVKXxKt472AUoF-M2C5-27" value="" style="endArrow=none;html=1;rounded=0;exitX=1;exitY=0.5;exitDx=0;exitDy=0;entryX=0;entryY=0.5;entryDx=0;entryDy=0;" edge="1" parent="1" source="aKfMm3EBDrIE1fahZyFZ-34" target="2yVKXxKt472AUoF-M2C5-26">
          <mxGeometry width="50" height="50" relative="1" as="geometry">
            <mxPoint x="360" y="430" as="sourcePoint" />
            <mxPoint x="410" y="380" as="targetPoint" />
          </mxGeometry>
        </mxCell>
        <mxCell id="2yVKXxKt472AUoF-M2C5-28" value="" style="endArrow=none;html=1;rounded=0;exitX=1;exitY=0.5;exitDx=0;exitDy=0;entryX=0;entryY=0.5;entryDx=0;entryDy=0;" edge="1" parent="1" source="2yVKXxKt472AUoF-M2C5-26" target="2yVKXxKt472AUoF-M2C5-8">
          <mxGeometry width="50" height="50" relative="1" as="geometry">
            <mxPoint x="360" y="430" as="sourcePoint" />
            <mxPoint x="410" y="380" as="targetPoint" />
          </mxGeometry>
        </mxCell>
        <mxCell id="2yVKXxKt472AUoF-M2C5-31" value="" style="ellipse;whiteSpace=wrap;html=1;aspect=fixed;" vertex="1" parent="1">
          <mxGeometry x="720" y="580" width="20" height="20" as="geometry" />
        </mxCell>
        <mxCell id="2yVKXxKt472AUoF-M2C5-32" value="" style="endArrow=none;html=1;rounded=0;entryX=0.75;entryY=1;entryDx=0;entryDy=0;exitX=0;exitY=0.5;exitDx=0;exitDy=0;" edge="1" parent="1" source="2yVKXxKt472AUoF-M2C5-31" target="2yVKXxKt472AUoF-M2C5-8">
          <mxGeometry width="50" height="50" relative="1" as="geometry">
            <mxPoint x="700" y="600" as="sourcePoint" />
            <mxPoint x="720" y="520" as="targetPoint" />
          </mxGeometry>
        </mxCell>
        <mxCell id="2yVKXxKt472AUoF-M2C5-33" value="esp_periodista" style="text;html=1;strokeColor=none;fillColor=none;align=center;verticalAlign=middle;whiteSpace=wrap;rounded=0;" vertex="1" parent="1">
          <mxGeometry x="767" y="575" width="60" height="30" as="geometry" />
        </mxCell>
        <mxCell id="2yVKXxKt472AUoF-M2C5-34" value="1" style="text;html=1;align=center;verticalAlign=middle;resizable=0;points=[];autosize=1;strokeColor=none;fillColor=none;" vertex="1" parent="1">
          <mxGeometry x="285" y="465" width="30" height="30" as="geometry" />
        </mxCell>
        <mxCell id="2yVKXxKt472AUoF-M2C5-35" value="1" style="text;html=1;align=center;verticalAlign=middle;resizable=0;points=[];autosize=1;strokeColor=none;fillColor=none;" vertex="1" parent="1">
          <mxGeometry x="490" y="505" width="30" height="30" as="geometry" />
        </mxCell>
        <mxCell id="2yVKXxKt472AUoF-M2C5-36" value="N" style="text;html=1;align=center;verticalAlign=middle;resizable=0;points=[];autosize=1;strokeColor=none;fillColor=none;" vertex="1" parent="1">
          <mxGeometry x="490" y="465" width="30" height="30" as="geometry" />
        </mxCell>
        <mxCell id="2yVKXxKt472AUoF-M2C5-37" value="M" style="text;html=1;align=center;verticalAlign=middle;resizable=0;points=[];autosize=1;strokeColor=none;fillColor=none;" vertex="1" parent="1">
          <mxGeometry x="285" y="505" width="30" height="30" as="geometry" />
        </mxCell>
        <mxCell id="2yVKXxKt472AUoF-M2C5-38" value="" style="shape=or;whiteSpace=wrap;html=1;fillColor=#000000;" vertex="1" parent="1">
          <mxGeometry x="360" y="580" width="10" height="20" as="geometry" />
        </mxCell>
        <mxCell id="2yVKXxKt472AUoF-M2C5-39" value="" style="shape=or;whiteSpace=wrap;html=1;fillColor=#000000;" vertex="1" parent="1">
          <mxGeometry x="440" y="580" width="10" height="20" as="geometry" />
        </mxCell>
        <mxCell id="2yVKXxKt472AUoF-M2C5-43" value="" style="shape=or;whiteSpace=wrap;html=1;direction=west;" vertex="1" parent="1">
          <mxGeometry x="350" y="580" width="10" height="20" as="geometry" />
        </mxCell>
        <mxCell id="2yVKXxKt472AUoF-M2C5-44" value="" style="shape=or;whiteSpace=wrap;html=1;direction=west;" vertex="1" parent="1">
          <mxGeometry x="430" y="580" width="10" height="20" as="geometry" />
        </mxCell>
        <mxCell id="2yVKXxKt472AUoF-M2C5-45" value="" style="endArrow=none;html=1;rounded=0;entryX=0;entryY=1;entryDx=0;entryDy=0;exitX=0.114;exitY=1.016;exitDx=0;exitDy=0;exitPerimeter=0;" edge="1" parent="1" source="2yVKXxKt472AUoF-M2C5-43" target="2yVKXxKt472AUoF-M2C5-26">
          <mxGeometry width="50" height="50" relative="1" as="geometry">
            <mxPoint x="300" y="570" as="sourcePoint" />
            <mxPoint x="350" y="520" as="targetPoint" />
          </mxGeometry>
        </mxCell>
        <mxCell id="2yVKXxKt472AUoF-M2C5-46" value="" style="endArrow=none;html=1;rounded=0;entryX=1;entryY=1;entryDx=0;entryDy=0;exitX=0;exitY=0.75;exitDx=0;exitDy=0;exitPerimeter=0;" edge="1" parent="1" source="2yVKXxKt472AUoF-M2C5-44" target="2yVKXxKt472AUoF-M2C5-26">
          <mxGeometry width="50" height="50" relative="1" as="geometry">
            <mxPoint x="340" y="540" as="sourcePoint" />
            <mxPoint x="390" y="490" as="targetPoint" />
          </mxGeometry>
        </mxCell>
        <mxCell id="2yVKXxKt472AUoF-M2C5-47" value="numreg_revista2" style="text;html=1;strokeColor=none;fillColor=none;align=center;verticalAlign=middle;whiteSpace=wrap;rounded=0;" vertex="1" parent="1">
          <mxGeometry x="270" y="580" width="60" height="30" as="geometry" />
        </mxCell>
        <mxCell id="2yVKXxKt472AUoF-M2C5-48" value="nif_periodista1" style="text;html=1;strokeColor=none;fillColor=none;align=center;verticalAlign=middle;whiteSpace=wrap;rounded=0;" vertex="1" parent="1">
          <mxGeometry x="480" y="580" width="30" height="25" as="geometry" />
        </mxCell>
      </root>
    </mxGraphModel>
  </diagram>
</mxfile>
